<svg xmlns="http://www.w3.org/2000/svg" width="1400" height="820" viewBox="0 0 1400 820">
<rect width="100%" height="100%" fill="#0f1220"/>
<text x="95" y="34" fill="#ffffff" font-size="24" font-family="Menlo,Consolas,monospace">Backend multiplierCurve (from 前後端串接文件.md)</text>
<text x="95" y="54" fill="#98a2b3" font-size="14" font-family="Menlo,Consolas,monospace">X=t(seconds), Y=m(multiplier), points=20</text>
<line x1="95" y1="740" x2="1360" y2="740" stroke="#c6d0f5" stroke-width="1.5"/>
<line x1="95" y1="740" x2="95" y2="60" stroke="#c6d0f5" stroke-width="1.5"/>
<line x1="95.00" y1="740" x2="95.00" y2="746" stroke="#c6d0f5" stroke-width="1"/>
<line x1="95.00" y1="60" x2="95.00" y2="740" stroke="#2a3357" stroke-width="1"/>
<text x="95.00" y="764" fill="#98a2b3" text-anchor="middle" font-size="12" font-family="Menlo,Consolas,monospace">0</text>
<line x1="273.17" y1="740" x2="273.17" y2="746" stroke="#c6d0f5" stroke-width="1"/>
<line x1="273.17" y1="60" x2="273.17" y2="740" stroke="#2a3357" stroke-width="1"/>
<text x="273.17" y="764" fill="#98a2b3" text-anchor="middle" font-size="12" font-family="Menlo,Consolas,monospace">20</text>
<line x1="451.34" y1="740" x2="451.34" y2="746" stroke="#c6d0f5" stroke-width="1"/>
<line x1="451.34" y1="60" x2="451.34" y2="740" stroke="#2a3357" stroke-width="1"/>
<text x="451.34" y="764" fill="#98a2b3" text-anchor="middle" font-size="12" font-family="Menlo,Consolas,monospace">40</text>
<line x1="629.51" y1="740" x2="629.51" y2="746" stroke="#c6d0f5" stroke-width="1"/>
<line x1="629.51" y1="60" x2="629.51" y2="740" stroke="#2a3357" stroke-width="1"/>
<text x="629.51" y="764" fill="#98a2b3" text-anchor="middle" font-size="12" font-family="Menlo,Consolas,monospace">60</text>
<line x1="807.68" y1="740" x2="807.68" y2="746" stroke="#c6d0f5" stroke-width="1"/>
<line x1="807.68" y1="60" x2="807.68" y2="740" stroke="#2a3357" stroke-width="1"/>
<text x="807.68" y="764" fill="#98a2b3" text-anchor="middle" font-size="12" font-family="Menlo,Consolas,monospace">80</text>
<line x1="985.85" y1="740" x2="985.85" y2="746" stroke="#c6d0f5" stroke-width="1"/>
<line x1="985.85" y1="60" x2="985.85" y2="740" stroke="#2a3357" stroke-width="1"/>
<text x="985.85" y="764" fill="#98a2b3" text-anchor="middle" font-size="12" font-family="Menlo,Consolas,monospace">100</text>
<line x1="1164.01" y1="740" x2="1164.01" y2="746" stroke="#c6d0f5" stroke-width="1"/>
<line x1="1164.01" y1="60" x2="1164.01" y2="740" stroke="#2a3357" stroke-width="1"/>
<text x="1164.01" y="764" fill="#98a2b3" text-anchor="middle" font-size="12" font-family="Menlo,Consolas,monospace">120</text>
<line x1="1342.18" y1="740" x2="1342.18" y2="746" stroke="#c6d0f5" stroke-width="1"/>
<line x1="1342.18" y1="60" x2="1342.18" y2="740" stroke="#2a3357" stroke-width="1"/>
<text x="1342.18" y="764" fill="#98a2b3" text-anchor="middle" font-size="12" font-family="Menlo,Consolas,monospace">140</text>
<line x1="89" y1="740.00" x2="95" y2="740.00" stroke="#c6d0f5" stroke-width="1"/>
<line x1="95" y1="740.00" x2="1360" y2="740.00" stroke="#2a3357" stroke-width="1"/>
<text x="83" y="744.00" fill="#98a2b3" text-anchor="end" font-size="12" font-family="Menlo,Consolas,monospace">0.2</text>
<line x1="89" y1="694.75" x2="95" y2="694.75" stroke="#c6d0f5" stroke-width="1"/>
<line x1="95" y1="694.75" x2="1360" y2="694.75" stroke="#2a3357" stroke-width="1"/>
<text x="83" y="698.75" fill="#98a2b3" text-anchor="end" font-size="12" font-family="Menlo,Consolas,monospace">100</text>
<line x1="89" y1="604.07" x2="95" y2="604.07" stroke="#c6d0f5" stroke-width="1"/>
<line x1="95" y1="604.07" x2="1360" y2="604.07" stroke="#2a3357" stroke-width="1"/>
<text x="83" y="608.07" fill="#98a2b3" text-anchor="end" font-size="12" font-family="Menlo,Consolas,monospace">300</text>
<line x1="89" y1="468.05" x2="95" y2="468.05" stroke="#c6d0f5" stroke-width="1"/>
<line x1="95" y1="468.05" x2="1360" y2="468.05" stroke="#2a3357" stroke-width="1"/>
<text x="83" y="472.05" fill="#98a2b3" text-anchor="end" font-size="12" font-family="Menlo,Consolas,monospace">600</text>
<line x1="89" y1="332.04" x2="95" y2="332.04" stroke="#c6d0f5" stroke-width="1"/>
<line x1="95" y1="332.04" x2="1360" y2="332.04" stroke="#2a3357" stroke-width="1"/>
<text x="83" y="336.04" fill="#98a2b3" text-anchor="end" font-size="12" font-family="Menlo,Consolas,monospace">900</text>
<line x1="89" y1="196.02" x2="95" y2="196.02" stroke="#c6d0f5" stroke-width="1"/>
<line x1="95" y1="196.02" x2="1360" y2="196.02" stroke="#2a3357" stroke-width="1"/>
<text x="83" y="200.02" fill="#98a2b3" text-anchor="end" font-size="12" font-family="Menlo,Consolas,monospace">1200</text>
<line x1="89" y1="60.00" x2="95" y2="60.00" stroke="#c6d0f5" stroke-width="1"/>
<line x1="95" y1="60.00" x2="1360" y2="60.00" stroke="#2a3357" stroke-width="1"/>
<text x="83" y="64.00" fill="#98a2b3" text-anchor="end" font-size="12" font-family="Menlo,Consolas,monospace">1500</text>
<polyline points="95.00,740.00 98.56,739.91 102.13,739.80 106.58,739.71 111.04,739.66 117.27,739.55 127.07,739.18 141.32,738.73 162.70,737.82 194.77,736.46 239.32,734.65 299.89,731.93 380.07,728.30 486.97,721.95 625.05,712.89 780.95,694.75 941.30,649.41 1097.20,558.73 1239.74,377.38 1360.00,60.00" fill="none" stroke="#f6c453" stroke-width="3" stroke-linejoin="round" stroke-linecap="round"/>
<circle cx="95.00" cy="740.00" r="3.3" fill="#7ef165"/>
<text x="103.00" y="732.00" fill="#d8dee9" font-size="11" font-family="Menlo,Consolas,monospace">(0, 0.2)</text>
<circle cx="98.56" cy="739.91" r="3.3" fill="#7ef165"/>
<circle cx="102.13" cy="739.80" r="3.3" fill="#7ef165"/>
<circle cx="106.58" cy="739.71" r="3.3" fill="#7ef165"/>
<circle cx="111.04" cy="739.66" r="3.3" fill="#7ef165"/>
<circle cx="117.27" cy="739.55" r="3.3" fill="#7ef165"/>
<text x="125.27" y="731.55" fill="#d8dee9" font-size="11" font-family="Menlo,Consolas,monospace">(2.5, 1.2)</text>
<circle cx="127.07" cy="739.18" r="3.3" fill="#7ef165"/>
<circle cx="141.32" cy="738.73" r="3.3" fill="#7ef165"/>
<circle cx="162.70" cy="737.82" r="3.3" fill="#7ef165"/>
<circle cx="194.77" cy="736.46" r="3.3" fill="#7ef165"/>
<circle cx="239.32" cy="734.65" r="3.3" fill="#7ef165"/>
<text x="247.32" y="726.65" fill="#d8dee9" font-size="11" font-family="Menlo,Consolas,monospace">(16.2, 12)</text>
<circle cx="299.89" cy="731.93" r="3.3" fill="#7ef165"/>
<circle cx="380.07" cy="728.30" r="3.3" fill="#7ef165"/>
<circle cx="486.97" cy="721.95" r="3.3" fill="#7ef165"/>
<circle cx="625.05" cy="712.89" r="3.3" fill="#7ef165"/>
<circle cx="780.95" cy="694.75" r="3.3" fill="#7ef165"/>
<text x="788.95" y="686.75" fill="#d8dee9" font-size="11" font-family="Menlo,Consolas,monospace">(77, 100)</text>
<circle cx="941.30" cy="649.41" r="3.3" fill="#7ef165"/>
<circle cx="1097.20" cy="558.73" r="3.3" fill="#7ef165"/>
<circle cx="1239.74" cy="377.38" r="3.3" fill="#7ef165"/>
<circle cx="1360.00" cy="60.00" r="3.3" fill="#7ef165"/>
<text x="1368.00" y="52.00" fill="#d8dee9" font-size="11" font-family="Menlo,Consolas,monospace">(142, 1500)</text>
<text x="727.50" y="800" fill="#c6d0f5" text-anchor="middle" font-size="14" font-family="Menlo,Consolas,monospace">t (seconds)</text>
<text x="24" y="400.00" fill="#c6d0f5" text-anchor="middle" font-size="14" font-family="Menlo,Consolas,monospace" transform="rotate(-90 24 400.00)">m (multiplier)</text>
</svg>